<svg width="47" height="48" viewBox="0 0 47 48" fill="none" xmlns="http://www.w3.org/2000/svg">
<path d="M23.8527 0.0152514C20.7506 -0.0980765 17.6577 0.421105 14.7602 1.54156C11.8627 2.66202 9.22045 4.3606 6.99232 6.53511C4.76419 8.70963 2.99628 11.3151 1.79493 14.1949C0.593575 17.0747 -0.016383 20.1692 0.00174489 23.2923C-0.0382289 26.5347 0.609034 29.7484 1.90041 32.7194C3.19178 35.6904 5.09762 38.3503 7.49093 40.5221C7.68094 40.6924 7.83565 40.8987 7.94616 41.1294C8.05667 41.36 8.12082 41.6103 8.13491 41.8659V46.1374C8.14798 46.4522 8.23695 46.7592 8.39416 47.0318C8.55137 47.3044 8.7721 47.5344 9.03733 47.7021C9.30256 47.8698 9.60432 47.97 9.91663 47.9942C10.2289 48.0185 10.5424 47.9659 10.8301 47.8412L15.6002 45.7534C16.0076 45.5986 16.457 45.5986 16.8643 45.7534C19.1193 46.3658 21.4455 46.6725 23.7811 46.6653C29.9296 46.6749 35.8301 44.2266 40.1845 39.859C44.5389 35.4915 46.9905 29.5625 47 23.3763C47.0095 17.1901 44.5761 11.2535 40.2351 6.87245C35.8941 2.4914 30.0012 0.024798 23.8527 0.0152514ZM38.1632 17.917L31.1749 29.0995C30.9113 29.5206 30.5639 29.882 30.1545 30.1611C29.745 30.4402 29.2826 30.6309 28.7962 30.7211C28.3099 30.8113 27.8102 30.7991 27.3288 30.6852C26.8474 30.5713 26.3947 30.3582 25.9992 30.0594L20.4181 25.86C20.1704 25.673 19.8691 25.572 19.5595 25.572C19.2499 25.572 18.9486 25.673 18.7009 25.86L11.164 31.6192C10.9541 31.7821 10.6936 31.8649 10.4288 31.8528C10.164 31.8408 9.91198 31.7347 9.71753 31.5535C9.52308 31.3722 9.39876 31.1275 9.36665 30.8628C9.33453 30.598 9.3967 30.3304 9.54211 30.1074L16.5304 18.9248C16.794 18.5038 17.1414 18.1424 17.5509 17.8633C17.9603 17.5842 18.4228 17.3935 18.9091 17.3033C19.3954 17.2131 19.8951 17.2253 20.3765 17.3392C20.8579 17.4531 21.3106 17.6662 21.7061 17.965L27.2872 22.1644C27.5349 22.3513 27.8362 22.4524 28.1458 22.4524C28.4555 22.4524 28.7567 22.3513 29.0045 22.1644L36.5413 16.4052C36.7512 16.2423 37.0117 16.1595 37.2765 16.1716C37.5413 16.1836 37.7933 16.2897 37.9878 16.4709C38.1822 16.6522 38.3066 16.8969 38.3387 17.1616C38.3708 17.4264 38.3086 17.694 38.1632 17.917Z" fill="#047E8C"/>
</svg>
