<svg width="48" height="48" viewBox="0 0 48 48" fill="none" xmlns="http://www.w3.org/2000/svg">
<path d="M44.8875 0H2.6125C1.91962 0 1.25512 0.275245 0.765184 0.765184C0.275245 1.25512 0 1.91962 0 2.6125V44.8875C0 45.2306 0.0675745 45.5703 0.198865 45.8873C0.330155 46.2042 0.522591 46.4922 0.765184 46.7348C1.00778 46.9774 1.29578 47.1698 1.61274 47.3011C1.9297 47.4324 2.26942 47.5 2.6125 47.5H25.365V29.0938H19.19V21.9688H25.365V16.625C25.2371 15.3704 25.3852 14.1031 25.799 12.9118C26.2127 11.7205 26.8821 10.6342 27.7601 9.72898C28.6381 8.82378 29.7036 8.12165 30.8817 7.67181C32.0598 7.22198 33.3221 7.03535 34.58 7.125C36.4285 7.11362 38.2762 7.20878 40.1137 7.41V13.8225H36.3375C33.345 13.8225 32.775 15.2475 32.775 17.3137V21.8975H39.9L38.9738 29.0225H32.775V47.5H44.8875C45.2306 47.5 45.5703 47.4324 45.8873 47.3011C46.2042 47.1698 46.4922 46.9774 46.7348 46.7348C46.9774 46.4922 47.1698 46.2042 47.3011 45.8873C47.4324 45.5703 47.5 45.2306 47.5 44.8875V2.6125C47.5 2.26942 47.4324 1.9297 47.3011 1.61274C47.1698 1.29578 46.9774 1.00778 46.7348 0.765184C46.4922 0.522591 46.2042 0.330155 45.8873 0.198865C45.5703 0.0675745 45.2306 0 44.8875 0Z" fill="#047E8C"/>
</svg>
