<svg width="18" height="22" viewBox="0 0 18 22" fill="none" xmlns="http://www.w3.org/2000/svg">
<path d="M9 0C6.61305 0 4.32387 0.927137 2.63604 2.57745C0.948212 4.22777 0 6.46607 0 8.79997C0 14.74 7.93125 21.4499 8.26875 21.7359C8.47252 21.9064 8.73185 22 9 22C9.26815 22 9.52748 21.9064 9.73125 21.7359C10.125 21.4499 18 14.74 18 8.79997C18 6.46607 17.0518 4.22777 15.364 2.57745C13.6761 0.927137 11.3869 0 9 0V0ZM9 19.4149C6.60375 17.2149 2.25 12.474 2.25 8.79997C2.25 7.04955 2.96116 5.37082 4.22703 4.13308C5.4929 2.89535 7.20979 2.19999 9 2.19999C10.7902 2.19999 12.5071 2.89535 13.773 4.13308C15.0388 5.37082 15.75 7.04955 15.75 8.79997C15.75 12.474 11.3963 17.2259 9 19.4149ZM9 4.39999C8.10998 4.39999 7.23996 4.65804 6.49993 5.14152C5.75991 5.62499 5.18314 6.31218 4.84254 7.11617C4.50195 7.92016 4.41283 8.80485 4.58647 9.65837C4.7601 10.5119 5.18868 11.2959 5.81802 11.9112C6.44736 12.5266 7.24918 12.9456 8.12209 13.1154C8.99501 13.2852 9.89981 13.1981 10.7221 12.865C11.5443 12.532 12.2471 11.968 12.7416 11.2445C13.2361 10.5209 13.5 9.67021 13.5 8.79997C13.5 7.63302 13.0259 6.51387 12.182 5.68871C11.3381 4.86355 10.1935 4.39999 9 4.39999ZM9 11C8.55499 11 8.11998 10.8709 7.74997 10.6292C7.37996 10.3875 7.09157 10.0439 6.92127 9.64187C6.75097 9.23988 6.70642 8.79753 6.79323 8.37077C6.88005 7.94402 7.09434 7.55202 7.40901 7.24434C7.72368 6.93667 8.12459 6.72714 8.56105 6.64225C8.9975 6.55736 9.4499 6.60093 9.86104 6.76744C10.2722 6.93396 10.6236 7.21593 10.8708 7.57772C11.118 7.93951 11.25 8.36485 11.25 8.79997C11.25 9.38345 11.0129 9.94302 10.591 10.3556C10.169 10.7682 9.59674 11 9 11Z" fill="white"/>
</svg>
