<svg width="33" height="33" viewBox="0 0 33 33" fill="none" xmlns="http://www.w3.org/2000/svg">
<path d="M28.2876 17.875C27.9301 17.875 27.5563 17.7612 27.1988 17.68C26.4754 17.5182 25.7641 17.3065 25.0701 17.0462C24.3162 16.772 23.4876 16.7862 22.7436 17.0862C21.9996 17.3862 21.3928 17.9508 21.0401 18.6712L20.6826 19.4187C19.1044 18.5237 17.6465 17.4316 16.3438 16.1687C15.0809 14.8661 13.9889 13.4082 13.0938 11.83L13.8413 11.4887C14.5618 11.136 15.1263 10.5292 15.4263 9.78525C15.7263 9.04126 15.7406 8.21261 15.4663 7.45875C15.2082 6.75842 14.9965 6.04188 14.8326 5.31375C14.7513 4.95625 14.6863 4.5825 14.6376 4.225C14.4402 3.08038 13.8407 2.04383 12.9469 1.30201C12.0532 0.560197 10.9239 0.161864 9.76256 0.17875H4.87131C4.18434 0.17785 3.50493 0.322153 2.87763 0.602199C2.25033 0.882244 1.68929 1.29171 1.23131 1.80375C0.763832 2.32969 0.415749 2.95059 0.21098 3.62381C0.00621053 4.29702 -0.0503917 5.00659 0.0450621 5.70375C0.928392 12.4672 4.01853 18.7503 8.83631 23.5788C13.6648 28.3965 19.9478 31.4867 26.7113 32.37C26.9223 32.3861 27.1341 32.3861 27.3451 32.37C28.5434 32.3718 29.7003 31.9321 30.5951 31.135C31.1071 30.677 31.5166 30.116 31.7966 29.4887C32.0767 28.8614 32.221 28.182 32.2201 27.495V22.62C32.2113 21.4972 31.8152 20.4118 31.0987 19.5473C30.3822 18.6827 29.3892 18.0921 28.2876 17.875ZM29.0838 27.625C29.0833 27.8518 29.0353 28.0759 28.9429 28.283C28.8506 28.4901 28.7159 28.6756 28.5476 28.8275C28.3695 28.9898 28.1575 29.1104 27.9271 29.1807C27.6966 29.2509 27.4534 29.2691 27.2151 29.2337C21.151 28.4418 15.5155 25.6782 11.1763 21.3687C6.83345 17.0259 4.04586 11.3707 3.24631 5.28125C3.21101 5.04292 3.22915 4.79972 3.29941 4.56926C3.36967 4.3388 3.4903 4.12685 3.65256 3.94875C3.80632 3.77837 3.99443 3.6425 4.20449 3.55007C4.41456 3.45764 4.64182 3.41075 4.87131 3.4125H9.74631C10.122 3.40332 10.4892 3.5246 10.7854 3.7557C11.0817 3.9868 11.2888 4.31343 11.3713 4.68C11.3713 5.11875 11.5176 5.57375 11.6151 6.0125C11.8029 6.86378 12.0527 7.70018 12.3626 8.515L10.0876 9.5875C9.69653 9.767 9.39265 10.0943 9.24256 10.4975C9.08003 10.8931 9.08003 11.3369 9.24256 11.7325C11.5813 16.742 15.6081 20.7688 20.6176 23.1075C21.0132 23.27 21.4569 23.27 21.8526 23.1075C22.2558 22.9574 22.5831 22.6535 22.7626 22.2625L23.7863 19.9875C24.6247 20.2932 25.4824 20.5429 26.3538 20.735C26.7763 20.8325 27.2313 20.9137 27.6701 20.9788C28.0366 21.0613 28.3633 21.2683 28.5944 21.5646C28.8255 21.8609 28.9467 22.2281 28.9376 22.6038L29.0838 27.625ZM19.4963 0C19.1226 0 18.7326 0 18.3588 0C17.9278 0.036633 17.5291 0.242971 17.2502 0.573621C16.9714 0.904271 16.8353 1.33215 16.8719 1.76313C16.9086 2.1941 17.1149 2.59287 17.4456 2.87172C17.7762 3.15056 18.2041 3.28663 18.6351 3.25H19.4963C22.0822 3.25 24.5621 4.27723 26.3906 6.10571C28.2191 7.93419 29.2463 10.4141 29.2463 13C29.2463 13.2925 29.2463 13.5687 29.2463 13.8612C29.2103 14.2899 29.3457 14.7154 29.6229 15.0444C29.9001 15.3734 30.2965 15.579 30.7251 15.6162H30.8551C31.2619 15.6179 31.6545 15.4669 31.9553 15.1931C32.2562 14.9193 32.4435 14.5426 32.4801 14.1375C32.4801 13.7638 32.4801 13.3737 32.4801 13C32.4801 9.555 31.1127 6.25086 28.6782 3.81335C26.2437 1.37585 22.9413 0.00430625 19.4963 0ZM22.7463 13C22.7463 13.431 22.9175 13.8443 23.2223 14.149C23.527 14.4538 23.9403 14.625 24.3713 14.625C24.8023 14.625 25.2156 14.4538 25.5204 14.149C25.8251 13.8443 25.9963 13.431 25.9963 13C25.9963 11.2761 25.3115 9.62279 24.0925 8.40381C22.8735 7.18482 21.2202 6.5 19.4963 6.5C19.0653 6.5 18.652 6.67121 18.3473 6.97595C18.0425 7.2807 17.8713 7.69402 17.8713 8.125C17.8713 8.55598 18.0425 8.9693 18.3473 9.27405C18.652 9.57879 19.0653 9.75 19.4963 9.75C20.3583 9.75 21.1849 10.0924 21.7944 10.7019C22.4039 11.3114 22.7463 12.138 22.7463 13Z" fill="#00383E"/>
</svg>
