<svg width="18" height="18" viewBox="0 0 18 18" fill="none" xmlns="http://www.w3.org/2000/svg">
<path d="M15.6766 9.93605C15.4785 9.93605 15.2713 9.87282 15.0732 9.82766C14.6723 9.73774 14.2781 9.62003 13.8935 9.47538C13.4757 9.32293 13.0165 9.33085 12.6042 9.4976C12.1919 9.66436 11.8556 9.97817 11.6601 10.3787L11.462 10.7942C10.5874 10.2966 9.77942 9.68959 9.05751 8.98761C8.35765 8.26352 7.75243 7.4531 7.25641 6.57586L7.67066 6.38617C8.06994 6.19008 8.3828 5.85281 8.54906 5.43926C8.71531 5.0257 8.7232 4.56508 8.57122 4.14604C8.4282 3.75676 8.31087 3.35846 8.22 2.95372C8.17497 2.755 8.13895 2.54724 8.11193 2.34852C8.00258 1.71227 7.67033 1.13609 7.17502 0.723741C6.67971 0.311393 6.0539 0.0899743 5.41028 0.0993604H2.69961C2.3189 0.0988602 1.94238 0.179073 1.59474 0.33474C1.2471 0.490407 0.936184 0.718013 0.682376 1.00264C0.423305 1.29499 0.230402 1.64013 0.116922 2.01434C0.00344179 2.38856 -0.0279264 2.78298 0.0249728 3.1705C0.514502 6.93007 2.22701 10.4226 4.89696 13.1066C7.57282 15.7846 11.0548 17.5023 14.803 17.9933C14.9199 18.0022 15.0374 18.0022 15.1543 17.9933C15.8183 17.9943 16.4595 17.7499 16.9554 17.3068C17.2391 17.0522 17.466 16.7404 17.6212 16.3917C17.7764 16.043 17.8564 15.6653 17.8559 15.2835V12.5736C17.8511 11.9495 17.6315 11.3462 17.2345 10.8656C16.8374 10.385 16.2871 10.0567 15.6766 9.93605ZM16.1178 15.3557C16.1175 15.4818 16.091 15.6063 16.0398 15.7215C15.9886 15.8366 15.914 15.9397 15.8207 16.0241C15.722 16.1143 15.6045 16.1814 15.4768 16.2204C15.3491 16.2595 15.2143 16.2696 15.0822 16.25C11.7216 15.8097 8.59846 14.2736 6.19376 11.8781C3.78701 9.46405 2.24216 6.32056 1.79906 2.93565C1.7795 2.80317 1.78955 2.66799 1.82849 2.53988C1.86742 2.41178 1.93428 2.29396 2.0242 2.19496C2.10941 2.10026 2.21366 2.02473 2.33007 1.97335C2.44649 1.92197 2.57243 1.89591 2.69961 1.89688H5.40127C5.60945 1.89178 5.81295 1.95919 5.97714 2.08765C6.14134 2.21611 6.25607 2.39768 6.30182 2.60144C6.30182 2.84532 6.38287 3.09824 6.43691 3.34213C6.54099 3.81532 6.67944 4.28024 6.85116 4.73317L5.59039 5.32934C5.37368 5.42911 5.20528 5.61102 5.1221 5.83517C5.03203 6.05508 5.03203 6.30175 5.1221 6.52166C6.41818 9.30624 8.64978 11.5446 11.426 12.8446C11.6452 12.9349 11.8911 12.9349 12.1104 12.8446C12.3339 12.7612 12.5152 12.5923 12.6147 12.3749L13.182 11.1103C13.6466 11.2802 14.122 11.419 14.6049 11.5258C14.8391 11.58 15.0912 11.6252 15.3344 11.6613C15.5375 11.7072 15.7185 11.8223 15.8466 11.987C15.9747 12.1517 16.0419 12.3558 16.0368 12.5646L16.1178 15.3557ZM10.8046 0C10.5975 0 10.3813 0 10.1742 0C9.93536 0.0203629 9.71436 0.135058 9.55983 0.318854C9.4053 0.502651 9.32989 0.740492 9.35019 0.980056C9.3705 1.21962 9.48484 1.44128 9.66809 1.59628C9.85133 1.75128 10.0885 1.82692 10.3273 1.80655H10.8046C12.2376 1.80655 13.612 2.37755 14.6253 3.39394C15.6386 4.41032 16.2079 5.78883 16.2079 7.22622C16.2079 7.38881 16.2079 7.54236 16.2079 7.70495C16.1879 7.94325 16.263 8.17976 16.4166 8.36263C16.5702 8.5455 16.7899 8.65981 17.0274 8.68049H17.0994C17.3249 8.68141 17.5425 8.59748 17.7092 8.44529C17.8759 8.2931 17.9797 8.08372 18 7.85851C18 7.65076 18 7.43397 18 7.22622C18 5.31127 17.2422 3.47462 15.8931 2.1197C14.5439 0.764782 12.7138 0.00239369 10.8046 0V0ZM12.6057 7.22622C12.6057 7.46578 12.7006 7.69553 12.8695 7.86493C13.0383 8.03433 13.2674 8.12949 13.5062 8.12949C13.7451 8.12949 13.9741 8.03433 14.143 7.86493C14.3119 7.69553 14.4068 7.46578 14.4068 7.22622C14.4068 6.26796 14.0273 5.34895 13.3517 4.67136C12.6762 3.99377 11.76 3.61311 10.8046 3.61311C10.5657 3.61311 10.3367 3.70828 10.1678 3.87767C9.99891 4.04707 9.90403 4.27682 9.90403 4.51639C9.90403 4.75595 9.99891 4.9857 10.1678 5.1551C10.3367 5.3245 10.5657 5.41966 10.8046 5.41966C11.2823 5.41966 11.7404 5.61 12.0782 5.94879C12.4159 6.28759 12.6057 6.74709 12.6057 7.22622Z" fill="white"/>
</svg>
