<svg width="49" height="49" viewBox="0 0 49 49" fill="none" xmlns="http://www.w3.org/2000/svg">
<path d="M24.5 8.4412e-08C19.6544 8.4412e-08 14.9175 1.4369 10.8885 4.12899C6.85953 6.82109 3.71931 10.6475 1.86496 15.1243C0.0106155 19.601 -0.474566 24.5272 0.470772 29.2797C1.41611 34.0322 3.74951 38.3977 7.17589 41.8241C10.6023 45.2505 14.9678 47.5839 19.7203 48.5292C24.4728 49.4746 29.399 48.9894 33.8758 47.135C38.3525 45.2807 42.1789 42.1405 44.871 38.1115C47.5631 34.0825 49 29.3456 49 24.5C49.0003 21.2825 48.3667 18.0965 47.1356 15.1239C45.9044 12.1513 44.0998 9.45037 41.8247 7.17529C39.5496 4.9002 36.8487 3.09555 33.8761 1.86441C30.9035 0.633262 27.7175 -0.000266998 24.5 8.4412e-08ZM32.2898 37.1235C32.1981 37.3522 32.0586 37.5586 31.8806 37.7289C31.7026 37.8993 31.4902 38.0296 31.2577 38.1111C31.0253 38.1927 30.7781 38.2236 30.5327 38.2018C30.2873 38.18 30.0494 38.106 29.8349 37.9847L23.184 32.8167L18.9153 36.7549C18.8162 36.8281 18.7004 36.8752 18.5784 36.8918C18.4563 36.9085 18.3321 36.8942 18.217 36.8503L19.0353 29.5286L19.0615 29.5493L19.0783 29.4048C19.0783 29.4048 31.0465 18.5084 31.5341 18.0441C32.0277 17.5811 31.8648 17.4806 31.8648 17.4806C31.8929 16.9158 30.9791 17.4806 30.9791 17.4806L15.1214 27.6825L8.51746 25.4334C8.51746 25.4334 7.50316 25.0696 7.40761 24.2697C7.30716 23.4759 8.55051 23.0447 8.55051 23.0447L34.8072 12.6138C34.8072 12.6138 36.9656 11.6521 36.9656 13.2447L32.2898 37.1235Z" fill="#047E8C"/>
</svg>
